{"asset":{"version":"2.0","generator":"babylon.js glTF exporter for 3dsmax 2020 v20221031.2"},"scene":0,"scenes":[{"nodes":[0,1,2,3,4,5]}],"nodes":[{"mesh":0,"translation":[0.0,36.97008,0.0],"rotation":[0.7071068,0.0,0.0,0.7071067],"scale":[1.42902613,0.9078421,1.0],"name":"Sphere006"},{"mesh":1,"translation":[0.0,19.8227272,0.0],"scale":[1.35170209,1.60892546,1.21507955],"name":"Sphere007"},{"mesh":2,"translation":[8.212999,21.8561783,-0.230527341],"rotation":[0.0,0.0,0.05132578,0.998681962],"scale":[0.7861749,1.0,1.0],"name":"Sphere011"},{"mesh":3,"translation":[-8.212999,21.8561783,-0.230527341],"rotation":[2.24352559E-09,4.36537739E-08,0.998681962,0.0513258837],"scale":[0.786174953,-1.0,1.0],"name":"Sphere017"},{"mesh":4,"translation":[-7.81,38.7205734,0.332761675],"rotation":[-0.103606917,0.151758626,0.9822144,0.0385981835],"scale":[1.0,-0.99999994,1.0],"name":"Sphere018"},{"mesh":5,"translation":[7.81,38.7205734,0.332761675],"rotation":[-0.151758581,0.103606865,0.03859827,0.9822144],"scale":[0.99999994,0.99999994,0.99999994],"name":"Sphere019"}],"meshes":[{"primitives":[{"attributes":{"POSITION":1,"NORMAL":2,"TEXCOORD_0":3},"indices":0,"material":0},{"attributes":{"POSITION":5,"NORMAL":6,"TEXCOORD_0":7},"indices":4,"material":1}],"name":"Sphere006"},{"primitives":[{"attributes":{"POSITION":9,"NORMAL":10,"TEXCOORD_0":11},"indices":8,"material":2}],"name":"Sphere007"},{"primitives":[{"attributes":{"POSITION":13,"NORMAL":14,"TEXCOORD_0":15},"indices":12,"material":3},{"attributes":{"POSITION":17,"NORMAL":18,"TEXCOORD_0":19},"indices":16,"material":4},{"attributes":{"POSITION":21,"NORMAL":22,"TEXCOORD_0":23},"indices":20,"material":5}],"name":"Sphere011"},{"primitives":[{"attributes":{"POSITION":25,"NORMAL":26,"TEXCOORD_0":27},"indices":24,"material":6},{"attributes":{"POSITION":29,"NORMAL":30,"TEXCOORD_0":31},"indices":28,"material":7},{"attributes":{"POSITION":33,"NORMAL":34,"TEXCOORD_0":35},"indices":32,"material":8}],"name":"Sphere017"},{"primitives":[{"attributes":{"POSITION":37,"NORMAL":38,"TEXCOORD_0":39},"indices":36,"material":9},{"attributes":{"POSITION":41,"NORMAL":42,"TEXCOORD_0":43},"indices":40,"material":10},{"attributes":{"POSITION":45,"NORMAL":46,"TEXCOORD_0":47},"indices":44,"material":11}],"name":"Sphere018"},{"primitives":[{"attributes":{"POSITION":49,"NORMAL":50,"TEXCOORD_0":51},"indices":48,"material":12},{"attributes":{"POSITION":53,"NORMAL":54,"TEXCOORD_0":55},"indices":52,"material":13},{"attributes":{"POSITION":57,"NORMAL":58,"TEXCOORD_0":59},"indices":56,"material":14}],"name":"Sphere019"}],"accessors":[{"bufferView":0,"componentType":5123,"count":2808,"type":"SCALAR","name":"accessorIndices"},{"bufferView":1,"componentType":5126,"count":505,"max":[3.76109052,5.05674267,3.81022215],"min":[-3.76051879,5.025693,-3.81022215],"type":"VEC3","name":"accessorPositions"},{"bufferView":1,"byteOffset":6060,"componentType":5126,"count":505,"type":"VEC3","name":"accessorNormals"},{"bufferView":2,"componentType":5126,"count":505,"type":"VEC2","name":"accessorUVs"},{"bufferView":0,"byteOffset":5616,"componentType":5123,"count":12312,"type":"SCALAR","name":"accessorIndices"},{"bufferView":1,"byteOffset":12120,"componentType":5126,"count":2341,"max":[4.647816,5.036304,6.642968],"min":[-4.63798761,-6.689004,-6.642968],"type":"VEC3","name":"accessorPositions"},{"bufferView":1,"byteOffset":40212,"componentType":5126,"count":2341,"type":"VEC3","name":"accessorNormals"},{"bufferView":2,"byteOffset":4040,"componentType":5126,"count":2341,"type":"VEC2","name":"accessorUVs"},{"bufferView":0,"byteOffset":30240,"componentType":5123,"count":3672,"type":"SCALAR","name":"accessorIndices"},{"bufferView":1,"byteOffset":68304,"componentType":5126,"count":766,"max":[5.75778437,5.646057,6.34765863],"min":[-5.776427,-5.071227,-4.41960335],"type":"VEC3","name":"accessorPositions"},{"bufferView":1,"byteOffset":77496,"componentType":5126,"count":766,"type":"VEC3","name":"accessorNormals"},{"bufferView":2,"byteOffset":22768,"componentType":5126,"count":766,"type":"VEC2","name":"accessorUVs"},{"bufferView":0,"byteOffset":37584,"componentType":5123,"count":564,"type":"SCALAR","name":"accessorIndices"},{"bufferView":1,"byteOffset":86688,"componentType":5126,"count":139,"max":[2.8572917,-3.91826844,2.74354935],"min":[0.19377327,-6.06664848,0.008601608],"type":"VEC3","name":"accessorPositions"},{"bufferView":1,"byteOffset":88356,"componentType":5126,"count":139,"type":"VEC3","name":"accessorNormals"},{"bufferView":2,"byteOffset":28896,"componentType":5126,"count":139,"type":"VEC2","name":"accessorUVs"},{"bufferView":0,"byteOffset":38712,"componentType":5123,"count":1296,"type":"SCALAR","name":"accessorIndices"},{"bufferView":1,"byteOffset":90024,"componentType":5126,"count":407,"max":[3.020602,6.376021,2.74354935],"min":[-2.24338961,-6.06664848,-2.33428288],"type":"VEC3","name":"accessorPositions"},{"bufferView":1,"byteOffset":94908,"componentType":5126,"count":407,"type":"VEC3","name":"accessorNormals"},{"bufferView":2,"byteOffset":30008,"componentType":5126,"count":407,"type":"VEC2","name":"accessorUVs"},{"bufferView":0,"byteOffset":41304,"componentType":5123,"count":1020,"type":"SCALAR","name":"accessorIndices"},{"bufferView":1,"byteOffset":99792,"componentType":5126,"count":533,"max":[3.020602,6.376021,2.73797536],"min":[-2.76303816,-6.06664848,-2.33428288],"type":"VEC3","name":"accessorPositions"},{"bufferView":1,"byteOffset":106188,"componentType":5126,"count":533,"type":"VEC3","name":"accessorNormals"},{"bufferView":2,"byteOffset":33264,"componentType":5126,"count":533,"type":"VEC2","name":"accessorUVs"},{"bufferView":0,"byteOffset":43344,"componentType":5123,"count":1020,"type":"SCALAR","name":"accessorIndices"},{"bufferView":1,"byteOffset":112584,"componentType":5126,"count":244,"max":[0.69132936,6.34061766,2.65064716],"min":[-2.76303816,-5.458078,-2.32680249],"type":"VEC3","name":"accessorPositions"},{"bufferView":1,"byteOffset":115512,"componentType":5126,"count":244,"type":"VEC3","name":"accessorNormals"},{"bufferView":2,"byteOffset":37528,"componentType":5126,"count":244,"type":"VEC2","name":"accessorUVs"},{"bufferView":0,"byteOffset":45384,"componentType":5123,"count":564,"type":"SCALAR","name":"accessorIndices"},{"bufferView":1,"byteOffset":118440,"componentType":5126,"count":354,"max":[2.8572917,6.34061766,2.74354935],"min":[-2.76303816,-6.06664848,-2.32680249],"type":"VEC3","name":"accessorPositions"},{"bufferView":1,"byteOffset":122688,"componentType":5126,"count":354,"type":"VEC3","name":"accessorNormals"},{"bufferView":2,"byteOffset":39480,"componentType":5126,"count":354,"type":"VEC2","name":"accessorUVs"},{"bufferView":0,"byteOffset":46512,"componentType":5123,"count":1296,"type":"SCALAR","name":"accessorIndices"},{"bufferView":1,"byteOffset":126936,"componentType":5126,"count":584,"max":[3.020602,6.376021,2.74354935],"min":[-2.76303816,-6.06664848,-2.33428288],"type":"VEC3","name":"accessorPositions"},{"bufferView":1,"byteOffset":133944,"componentType":5126,"count":584,"type":"VEC3","name":"accessorNormals"},{"bufferView":2,"byteOffset":42312,"componentType":5126,"count":584,"type":"VEC2","name":"accessorUVs"},{"bufferView":0,"byteOffset":49104,"componentType":5123,"count":1632,"type":"SCALAR","name":"accessorIndices"},{"bufferView":1,"byteOffset":140952,"componentType":5126,"count":298,"max":[-1.85386515,-2.63298917,-0.257473052],"min":[-3.10097241,-4.034099,-0.962641656],"type":"VEC3","name":"accessorPositions"},{"bufferView":1,"byteOffset":144528,"componentType":5126,"count":298,"type":"VEC3","name":"accessorNormals"},{"bufferView":2,"byteOffset":46984,"componentType":5126,"count":298,"type":"VEC2","name":"accessorUVs"},{"bufferView":0,"byteOffset":52368,"componentType":5123,"count":8688,"type":"SCALAR","name":"accessorIndices"},{"bufferView":1,"byteOffset":148104,"componentType":5126,"count":1883,"max":[2.4575038,3.98772049,0.8762132],"min":[-3.14149737,-4.100099,-1.481227],"type":"VEC3","name":"accessorPositions"},{"bufferView":1,"byteOffset":170700,"componentType":5126,"count":1883,"type":"VEC3","name":"accessorNormals"},{"bufferView":2,"byteOffset":49368,"componentType":5126,"count":1883,"type":"VEC2","name":"accessorUVs"},{"bufferView":0,"byteOffset":69744,"componentType":5123,"count":6372,"type":"SCALAR","name":"accessorIndices"},{"bufferView":1,"byteOffset":193296,"componentType":5126,"count":1851,"max":[2.4575038,3.969536,0.8762132],"min":[-3.141354,-4.100099,-1.46293271],"type":"VEC3","name":"accessorPositions"},{"bufferView":1,"byteOffset":215508,"componentType":5126,"count":1851,"type":"VEC3","name":"accessorNormals"},{"bufferView":2,"byteOffset":64432,"componentType":5126,"count":1851,"type":"VEC2","name":"accessorUVs"},{"bufferView":0,"byteOffset":82488,"componentType":5123,"count":8688,"type":"SCALAR","name":"accessorIndices"},{"bufferView":1,"byteOffset":237720,"componentType":5126,"count":1883,"max":[2.4575038,3.98772049,0.8762132],"min":[-3.14149737,-4.100099,-1.481227],"type":"VEC3","name":"accessorPositions"},{"bufferView":1,"byteOffset":260316,"componentType":5126,"count":1883,"type":"VEC3","name":"accessorNormals"},{"bufferView":2,"byteOffset":79240,"componentType":5126,"count":1883,"type":"VEC2","name":"accessorUVs"},{"bufferView":0,"byteOffset":99864,"componentType":5123,"count":6372,"type":"SCALAR","name":"accessorIndices"},{"bufferView":1,"byteOffset":282912,"componentType":5126,"count":1851,"max":[2.4575038,3.969536,0.8762132],"min":[-3.141354,-4.100099,-1.46293271],"type":"VEC3","name":"accessorPositions"},{"bufferView":1,"byteOffset":305124,"componentType":5126,"count":1851,"type":"VEC3","name":"accessorNormals"},{"bufferView":2,"byteOffset":94304,"componentType":5126,"count":1851,"type":"VEC2","name":"accessorUVs"},{"bufferView":0,"byteOffset":112608,"componentType":5123,"count":1632,"type":"SCALAR","name":"accessorIndices"},{"bufferView":1,"byteOffset":327336,"componentType":5126,"count":298,"max":[-1.85386515,-2.63298917,-0.257473052],"min":[-3.10097241,-4.034099,-0.962641656],"type":"VEC3","name":"accessorPositions"},{"bufferView":1,"byteOffset":330912,"componentType":5126,"count":298,"type":"VEC3","name":"accessorNormals"},{"bufferView":2,"byteOffset":109112,"componentType":5126,"count":298,"type":"VEC2","name":"accessorUVs"}],"bufferViews":[{"buffer":0,"byteLength":115872,"name":"bufferViewScalar"},{"buffer":0,"byteOffset":115872,"byteLength":334488,"byteStride":12,"name":"bufferViewFloatVec3"},{"buffer":0,"byteOffset":450360,"byteLength":111496,"byteStride":8,"name":"bufferViewFloatVec2"}],"buffers":[{"uri":"fullbody.bin","byteLength":561856}],"materials":[{"pbrMetallicRoughness":{"baseColorTexture":{"index":0},"metallicFactor":0.0,"roughnessFactor":0.450053632},"name":"white"},{"pbrMetallicRoughness":{"baseColorTexture":{"index":1},"metallicFactor":0.0,"roughnessFactor":0.450053632},"name":"grey"},{"pbrMetallicRoughness":{"baseColorTexture":{"index":2},"metallicFactor":0.0,"roughnessFactor":0.450053632},"name":"04 - Default"},{"pbrMetallicRoughness":{"baseColorTexture":{"index":3},"metallicFactor":0.0,"roughnessFactor":0.450053632},"name":"orange"},{"pbrMetallicRoughness":{"baseColorTexture":{"index":4},"metallicFactor":0.0,"roughnessFactor":0.450053632},"name":"white"},{"pbrMetallicRoughness":{"baseColorTexture":{"index":5},"metallicFactor":0.0,"roughnessFactor":0.450053632},"name":"grey"},{"pbrMetallicRoughness":{"baseColorTexture":{"index":6},"metallicFactor":0.0,"roughnessFactor":0.450053632},"name":"grey"},{"pbrMetallicRoughness":{"baseColorTexture":{"index":7},"metallicFactor":0.0,"roughnessFactor":0.450053632},"name":"orange"},{"pbrMetallicRoughness":{"baseColorTexture":{"index":8},"metallicFactor":0.0,"roughnessFactor":0.450053632},"name":"white"},{"pbrMetallicRoughness":{"baseColorTexture":{"index":9},"metallicFactor":0.0,"roughnessFactor":0.450053632},"name":"black"},{"pbrMetallicRoughness":{"baseColorTexture":{"index":10},"metallicFactor":0.0,"roughnessFactor":0.450053632},"name":"orange"},{"pbrMetallicRoughness":{"baseColorTexture":{"index":11},"metallicFactor":0.0,"roughnessFactor":0.450053632},"name":"white"},{"pbrMetallicRoughness":{"baseColorTexture":{"index":12},"metallicFactor":0.0,"roughnessFactor":0.450053632},"name":"orange"},{"pbrMetallicRoughness":{"baseColorTexture":{"index":13},"metallicFactor":0.0,"roughnessFactor":0.450053632},"name":"white"},{"pbrMetallicRoughness":{"baseColorTexture":{"index":14},"metallicFactor":0.0,"roughnessFactor":0.450053632},"name":"grey"}],"textures":[{"sampler":0,"source":0,"name":"head_to_tex_white_BaseColor.png"},{"sampler":0,"source":1,"name":"head_to_tex_grey_BaseColor.png"},{"sampler":0,"source":2,"name":"body_to_tex_DefaultMaterial_BaseColor.png"},{"sampler":0,"source":3,"name":"arm_to_tex_orange_BaseColor.png"},{"sampler":0,"source":4,"name":"arm_to_tex_white_BaseColor.png"},{"sampler":0,"source":5,"name":"arm_to_tex_grey_BaseColor.png"},{"sampler":0,"source":6,"name":"arm_bis_to_tex_grey_BaseColor.png"},{"sampler":0,"source":7,"name":"arm_bis_to_tex_orange_BaseColor.png"},{"sampler":0,"source":8,"name":"arm_bis_to_tex_white_BaseColor.png"},{"sampler":0,"source":9,"name":"ear_bis_to_tex_grey_BaseColor.png"},{"sampler":0,"source":10,"name":"ear_bis_to_tex_orange_BaseColor.png"},{"sampler":0,"source":11,"name":"ear_bis_to_tex_white_BaseColor.png"},{"sampler":0,"source":12,"name":"ear_to_tex_02_orange_BaseColor.png"},{"sampler":0,"source":13,"name":"ear_to_tex_02_white_BaseColor.png"},{"sampler":0,"source":14,"name":"ear_to_tex_02_grey_BaseColor.png"}],"images":[{"uri":"head_to_tex_white_BaseColor.png"},{"uri":"head_to_tex_grey_BaseColor.png"},{"uri":"body_to_tex_DefaultMaterial_BaseColor.png"},{"uri":"arm_to_tex_orange_BaseColor.png"},{"uri":"arm_to_tex_white_BaseColor.png"},{"uri":"arm_to_tex_grey_BaseColor.png"},{"uri":"arm_bis_to_tex_grey_BaseColor.png"},{"uri":"arm_bis_to_tex_orange_BaseColor.png"},{"uri":"arm_bis_to_tex_white_BaseColor.png"},{"uri":"ear_bis_to_tex_grey_BaseColor.png"},{"uri":"ear_bis_to_tex_orange_BaseColor.png"},{"uri":"ear_bis_to_tex_white_BaseColor.png"},{"uri":"ear_to_tex_02_orange_BaseColor.png"},{"uri":"ear_to_tex_02_white_BaseColor.png"},{"uri":"ear_to_tex_02_grey_BaseColor.png"}],"samplers":[{"magFilter":9729,"minFilter":9987}]}