{"asset":{"version":"2.0","generator":"babylon.js glTF exporter for 3dsmax 2020 v20221031.2"},"scene":0,"scenes":[{"nodes":[0]}],"nodes":[{"mesh":0,"translation":[-7.81,38.7205734,0.332761675],"rotation":[-0.103606917,0.151758626,0.9822144,0.0385981835],"scale":[1.0,-0.99999994,1.0],"name":"Sphere018"}],"meshes":[{"primitives":[{"attributes":{"POSITION":1,"NORMAL":2,"TEXCOORD_0":3},"indices":0,"material":0},{"attributes":{"POSITION":5,"NORMAL":6,"TEXCOORD_0":7},"indices":4,"material":1},{"attributes":{"POSITION":9,"NORMAL":10,"TEXCOORD_0":11},"indices":8,"material":2}],"name":"Sphere018"}],"accessors":[{"bufferView":0,"componentType":5123,"count":1632,"type":"SCALAR","name":"accessorIndices"},{"bufferView":1,"componentType":5126,"count":298,"max":[-1.85386515,-2.63298917,-0.257473052],"min":[-3.10097241,-4.034099,-0.962641656],"type":"VEC3","name":"accessorPositions"},{"bufferView":1,"byteOffset":3576,"componentType":5126,"count":298,"type":"VEC3","name":"accessorNormals"},{"bufferView":2,"componentType":5126,"count":298,"type":"VEC2","name":"accessorUVs"},{"bufferView":0,"byteOffset":3264,"componentType":5123,"count":8688,"type":"SCALAR","name":"accessorIndices"},{"bufferView":1,"byteOffset":7152,"componentType":5126,"count":1883,"max":[2.4575038,3.98772049,0.8762132],"min":[-3.14149737,-4.100099,-1.481227],"type":"VEC3","name":"accessorPositions"},{"bufferView":1,"byteOffset":29748,"componentType":5126,"count":1883,"type":"VEC3","name":"accessorNormals"},{"bufferView":2,"byteOffset":2384,"componentType":5126,"count":1883,"type":"VEC2","name":"accessorUVs"},{"bufferView":0,"byteOffset":20640,"componentType":5123,"count":6372,"type":"SCALAR","name":"accessorIndices"},{"bufferView":1,"byteOffset":52344,"componentType":5126,"count":1851,"max":[2.4575038,3.969536,0.8762132],"min":[-3.141354,-4.100099,-1.46293271],"type":"VEC3","name":"accessorPositions"},{"bufferView":1,"byteOffset":74556,"componentType":5126,"count":1851,"type":"VEC3","name":"accessorNormals"},{"bufferView":2,"byteOffset":17448,"componentType":5126,"count":1851,"type":"VEC2","name":"accessorUVs"}],"bufferViews":[{"buffer":0,"byteLength":33384,"name":"bufferViewScalar"},{"buffer":0,"byteOffset":33384,"byteLength":96768,"byteStride":12,"name":"bufferViewFloatVec3"},{"buffer":0,"byteOffset":130152,"byteLength":32256,"byteStride":8,"name":"bufferViewFloatVec2"}],"buffers":[{"uri":"r_ear.bin","byteLength":162408}],"materials":[{"pbrMetallicRoughness":{"baseColorTexture":{"index":0},"metallicFactor":0.0,"roughnessFactor":0.450053632},"name":"black"},{"pbrMetallicRoughness":{"baseColorTexture":{"index":1},"metallicFactor":0.0,"roughnessFactor":0.450053632},"name":"orange"},{"pbrMetallicRoughness":{"baseColorTexture":{"index":2},"metallicFactor":0.0,"roughnessFactor":0.450053632},"name":"white"}],"textures":[{"sampler":0,"source":0,"name":"ear_bis_to_tex_grey_BaseColor.png"},{"sampler":0,"source":1,"name":"ear_bis_to_tex_orange_BaseColor.png"},{"sampler":0,"source":2,"name":"ear_bis_to_tex_white_BaseColor.png"}],"images":[{"uri":"ear_bis_to_tex_grey_BaseColor.png"},{"uri":"ear_bis_to_tex_orange_BaseColor.png"},{"uri":"ear_bis_to_tex_white_BaseColor.png"}],"samplers":[{"magFilter":9729,"minFilter":9987}]}