{"asset":{"version":"2.0","generator":"babylon.js glTF exporter for 3dsmax 2020 v20221031.2"},"scene":0,"scenes":[{"nodes":[0]}],"nodes":[{"mesh":0,"translation":[8.212999,21.8561783,-0.230527341],"rotation":[0.0,0.0,0.05132578,0.998681962],"scale":[0.7861749,1.0,1.0],"name":"Sphere011"}],"meshes":[{"primitives":[{"attributes":{"POSITION":1,"NORMAL":2,"TEXCOORD_0":3},"indices":0,"material":0},{"attributes":{"POSITION":5,"NORMAL":6,"TEXCOORD_0":7},"indices":4,"material":1},{"attributes":{"POSITION":9,"NORMAL":10,"TEXCOORD_0":11},"indices":8,"material":2}],"name":"Sphere011"}],"accessors":[{"bufferView":0,"componentType":5123,"count":564,"type":"SCALAR","name":"accessorIndices"},{"bufferView":1,"componentType":5126,"count":139,"max":[2.8572917,-3.91826844,2.74354935],"min":[0.19377327,-6.06664848,0.008601608],"type":"VEC3","name":"accessorPositions"},{"bufferView":1,"byteOffset":1668,"componentType":5126,"count":139,"type":"VEC3","name":"accessorNormals"},{"bufferView":2,"componentType":5126,"count":139,"type":"VEC2","name":"accessorUVs"},{"bufferView":0,"byteOffset":1128,"componentType":5123,"count":1296,"type":"SCALAR","name":"accessorIndices"},{"bufferView":1,"byteOffset":3336,"componentType":5126,"count":407,"max":[3.020602,6.376021,2.74354935],"min":[-2.24338961,-6.06664848,-2.33428288],"type":"VEC3","name":"accessorPositions"},{"bufferView":1,"byteOffset":8220,"componentType":5126,"count":407,"type":"VEC3","name":"accessorNormals"},{"bufferView":2,"byteOffset":1112,"componentType":5126,"count":407,"type":"VEC2","name":"accessorUVs"},{"bufferView":0,"byteOffset":3720,"componentType":5123,"count":1020,"type":"SCALAR","name":"accessorIndices"},{"bufferView":1,"byteOffset":13104,"componentType":5126,"count":533,"max":[3.020602,6.376021,2.73797536],"min":[-2.76303816,-6.06664848,-2.33428288],"type":"VEC3","name":"accessorPositions"},{"bufferView":1,"byteOffset":19500,"componentType":5126,"count":533,"type":"VEC3","name":"accessorNormals"},{"bufferView":2,"byteOffset":4368,"componentType":5126,"count":533,"type":"VEC2","name":"accessorUVs"}],"bufferViews":[{"buffer":0,"byteLength":5760,"name":"bufferViewScalar"},{"buffer":0,"byteOffset":5760,"byteLength":25896,"byteStride":12,"name":"bufferViewFloatVec3"},{"buffer":0,"byteOffset":31656,"byteLength":8632,"byteStride":8,"name":"bufferViewFloatVec2"}],"buffers":[{"uri":"l_arm.bin","byteLength":40288}],"materials":[{"pbrMetallicRoughness":{"baseColorTexture":{"index":0},"metallicFactor":0.0,"roughnessFactor":0.450053632},"name":"orange"},{"pbrMetallicRoughness":{"baseColorTexture":{"index":1},"metallicFactor":0.0,"roughnessFactor":0.450053632},"name":"white"},{"pbrMetallicRoughness":{"baseColorTexture":{"index":2},"metallicFactor":0.0,"roughnessFactor":0.450053632},"name":"grey"}],"textures":[{"sampler":0,"source":0,"name":"arm_to_tex_orange_BaseColor.png"},{"sampler":0,"source":1,"name":"arm_to_tex_white_BaseColor.png"},{"sampler":0,"source":2,"name":"arm_to_tex_grey_BaseColor.png"}],"images":[{"uri":"arm_to_tex_orange_BaseColor.png"},{"uri":"arm_to_tex_white_BaseColor.png"},{"uri":"arm_to_tex_grey_BaseColor.png"}],"samplers":[{"magFilter":9729,"minFilter":9987}]}