{"asset":{"version":"2.0","generator":"babylon.js glTF exporter for 3dsmax 2020 v20221031.2"},"scene":0,"scenes":[{"nodes":[0]}],"nodes":[{"mesh":0,"translation":[-8.212999,21.8561783,-0.230527341],"rotation":[2.24352559E-09,4.36537739E-08,0.998681962,0.0513258837],"scale":[0.786174953,-1.0,1.0],"name":"Sphere017"}],"meshes":[{"primitives":[{"attributes":{"POSITION":1,"NORMAL":2,"TEXCOORD_0":3},"indices":0,"material":0},{"attributes":{"POSITION":5,"NORMAL":6,"TEXCOORD_0":7},"indices":4,"material":1},{"attributes":{"POSITION":9,"NORMAL":10,"TEXCOORD_0":11},"indices":8,"material":2}],"name":"Sphere017"}],"accessors":[{"bufferView":0,"componentType":5123,"count":1020,"type":"SCALAR","name":"accessorIndices"},{"bufferView":1,"componentType":5126,"count":244,"max":[0.69132936,6.34061766,2.65064716],"min":[-2.76303816,-5.458078,-2.32680249],"type":"VEC3","name":"accessorPositions"},{"bufferView":1,"byteOffset":2928,"componentType":5126,"count":244,"type":"VEC3","name":"accessorNormals"},{"bufferView":2,"componentType":5126,"count":244,"type":"VEC2","name":"accessorUVs"},{"bufferView":0,"byteOffset":2040,"componentType":5123,"count":564,"type":"SCALAR","name":"accessorIndices"},{"bufferView":1,"byteOffset":5856,"componentType":5126,"count":354,"max":[2.8572917,6.34061766,2.74354935],"min":[-2.76303816,-6.06664848,-2.32680249],"type":"VEC3","name":"accessorPositions"},{"bufferView":1,"byteOffset":10104,"componentType":5126,"count":354,"type":"VEC3","name":"accessorNormals"},{"bufferView":2,"byteOffset":1952,"componentType":5126,"count":354,"type":"VEC2","name":"accessorUVs"},{"bufferView":0,"byteOffset":3168,"componentType":5123,"count":1296,"type":"SCALAR","name":"accessorIndices"},{"bufferView":1,"byteOffset":14352,"componentType":5126,"count":584,"max":[3.020602,6.376021,2.74354935],"min":[-2.76303816,-6.06664848,-2.33428288],"type":"VEC3","name":"accessorPositions"},{"bufferView":1,"byteOffset":21360,"componentType":5126,"count":584,"type":"VEC3","name":"accessorNormals"},{"bufferView":2,"byteOffset":4784,"componentType":5126,"count":584,"type":"VEC2","name":"accessorUVs"}],"bufferViews":[{"buffer":0,"byteLength":5760,"name":"bufferViewScalar"},{"buffer":0,"byteOffset":5760,"byteLength":28368,"byteStride":12,"name":"bufferViewFloatVec3"},{"buffer":0,"byteOffset":34128,"byteLength":9456,"byteStride":8,"name":"bufferViewFloatVec2"}],"buffers":[{"uri":"r_arm.bin","byteLength":43584}],"materials":[{"pbrMetallicRoughness":{"baseColorTexture":{"index":0},"metallicFactor":0.0,"roughnessFactor":0.450053632},"name":"grey"},{"pbrMetallicRoughness":{"baseColorTexture":{"index":1},"metallicFactor":0.0,"roughnessFactor":0.450053632},"name":"orange"},{"pbrMetallicRoughness":{"baseColorTexture":{"index":2},"metallicFactor":0.0,"roughnessFactor":0.450053632},"name":"white"}],"textures":[{"sampler":0,"source":0,"name":"arm_bis_to_tex_grey_BaseColor.png"},{"sampler":0,"source":1,"name":"arm_bis_to_tex_orange_BaseColor.png"},{"sampler":0,"source":2,"name":"arm_bis_to_tex_white_BaseColor.png"}],"images":[{"uri":"arm_bis_to_tex_grey_BaseColor.png"},{"uri":"arm_bis_to_tex_orange_BaseColor.png"},{"uri":"arm_bis_to_tex_white_BaseColor.png"}],"samplers":[{"magFilter":9729,"minFilter":9987}]}